<?xml version="1.0" encoding="UTF-8"?>
<svg xmlns="http://www.w3.org/2000/svg" xmlns:xlink="http://www.w3.org/1999/xlink" version="1.1" viewBox="0 0 493.1 285.2">
  <defs>
    <style>
      .cls-1, .cls-2 {
        stroke: #a8cd79;
      }

      .cls-1, .cls-2, .cls-3, .cls-4 {
        fill: none;
        stroke-miterlimit: 10;
      }

      .cls-1, .cls-3, .cls-4 {
        stroke-width: 3px;
      }

      .cls-2 {
        stroke-width: 6px;
      }

      .cls-3 {
        stroke: #063;
      }

      .cls-5 {
        display: none;
      }

      .cls-4 {
        stroke: #a8cd7a;
      }
    </style>
  </defs>
  <!-- Generator: Adobe Illustrator 28.7.1, SVG Export Plug-In . SVG Version: 1.2.0 Build 142)  -->
  <g>
    <g id="Laag_1">
      <g id="mXTN8W" class="cls-5">
        <image id="mXTN8W-2" data-name="mXTN8W" width="474" height="632" transform="translate(6.2 -236.3)" xlink:href="blad-1.png"/>
      </g>
      <path class="cls-1" d="M77.3,44.9c-5.9-3.7-22.4-26.6-23.1-28.8.7.4,21.4,15.9,28.6,24.3,6.7-6.2,27.2-23.6,59.1-27.4,34.5-4.1,60,10.3,67.5,14.9-.8,4.9-3.5,17.2-13.7,28.4-10.6,11.7-23.1,15.6-27.9,16.8,5.6,1.6,17.9,5.8,28.4,17.3,14.6,15.9,15.9,34.5,16.1,39.7-.5,5-.9,16.2,5,28.4,4.4,9.1,10.5,14.9,14.2,18l-58.7,1.7c-6.2-.5-25.8-3-42.8-19-13.3-12.6-18.1-27-19.9-33.4.7,3.5,2.1,13.7-3.4,24.3-3.3,6.4-7.8,10.4-10.6,12.5-4.6,2.8-11.8,8-17.5,16.8-2.5,3.9-4.2,7.6-5.3,10.8-7.1-6.3-24.5-23.3-32.2-51.7-7.2-26.5-2.2-48.5.5-57.7,2.6-5.4,7.2-13.3,14.9-21.1,7.7-7.7,15.5-12.3,20.9-14.9Z"/>
      <path class="cls-2" d="M58.8,14.7"/>
      <path class="cls-1" d="M439.4,107.3c2.2,1.2,3.3,3.5,2.8,5.7-.5,2.3-2.6,3.3-2.8,3.5-2,1.1-4,2.1-6,3.2-3.4,1.8-6.8,3.4-10.1,5,2.7.1,18,1,29,13.9,13.5,15.7,8.7,35.4,8.2,37.2-.1.6-2.7,15.2-15.8,20.2-8.2,3.1-15.6.5-17.6-.3-2.2-1.1-4.9-2.8-7.6-5.4-6.6-6.5-8.1-14.5-8.5-17.6,2.4,5.6,9.2,23.6,3.2,45.4-4.5,16.2-13.9,26.4-18.6,30.9-1.7.8-10.4,4.8-20.4,1.1-13-4.8-16.2-18.4-16.4-19.4v-29.6c2.6,31.1-8.9,57.6-28.7,66.2-4.2,1.8-10.9,3.8-20.2,2.8-2.2-1.5-9-6.6-11.3-15.8-2.6-10.1,1.1-21.1,9.5-28.7-2.8,3.3-18.9,21.5-44.4,22.1-12.6.3-22.4-3.8-27.7-6.6-1.4-3.8-3.1-10.3-2.2-18.3,1.8-15.5,12.5-24.8,15.2-27.1,5.1-2.9,12.1-6.2,20.9-8.5,10.6-2.8,19.9-3,26.4-2.7-2-.4-21.2-3.8-28.3-10.5-.9-.9-2.8-2.6-3.5-5.4-1-3.8.7-7.1,1.4-8.5,1.5-2.6,4.1-6.3,8.2-9.8,2-1.7,4.9-3.9,10.1-6.3,9.8-4.6,20-6.5,27.1-7.2,1.7.1,3.4.2,5.2.4,8.6.8,16.8,2,24.4,3.5-14.1-.3-24.9-9.1-26.1-18.1-1.5-11.1,10.9-25.9,29.9-25.2,6.5-.7,20.5-1.2,36.2,5.7,14.3,6.3,23,15.8,27.1,20.8,1.5-.8,3-1.6,4.5-2.3,9-4.7,18-9.4,27-14Z"/>
      <path class="cls-1" d="M234.6,237.3c2.4-.6,6-1.5,10.3-2.9,24.3-7.9,39.3-20.7,51.8-30.7,28.2-22.7,54.2-40,101.7-71.3,1.3-.9,2.6-1.7,3.9-2.6,8.5,6.9,20.4,18.5,30.2,35.7,6.4,11.3,10.1,21.9,12.3,30.2"/>
      <path class="cls-1" d="M312.5,118.4c14.9-1.5,36-1.7,59.8,4.6,9.9,2.6,18.6,6,26.1,9.4l-17.8,13.9c3.1,10.8,6,23.3,7.8,37.2,3.4,26.2,2.1,49.1-.3,66.8"/>
      <path class="cls-1" d="M354,161.7c-9.4-1.9-19.9-3.5-31.4-4.3-21.9-1.6-41.2,0-56.7,2.5,15.5-2.5,34.8-4.1,56.7-2.5,11.5.8,22.1,2.4,31.4,4.3Z"/>
      <path class="cls-1" d="M338.7,172.4c.1,0,.6,3.1.8,10,.3,9,.7,29.2-4.3,48.1-6.6,24.5-21.4,39.6-21.5,39.6,0,0,14.2-15.2,21.5-39.6,8.9-29.5,3.2-58,3.6-58.1Z"/>
      <line class="cls-4" x1="388.7" y1="139.4" x2="418.4" y2="118.2"/>
      <path class="cls-3" d="M223.4,171.9c-8.4-2.2-14.8-4.9-18.8-6.7-26.5-12.3-43.3-33.1-61.8-56.4-3-3.8-5.3-6.9-6.7-8.7-9.5-10.6-18.9-21.2-28.4-31.7-8.3-9.3-16.6-18.6-24.9-27.9"/>
      <path class="cls-3" d="M204,30.1c-17.7,1.5-30.1,6.4-38.3,10.8-13.6,7.2-20.6,15.5-38.3,22.2-8,3-15,4.5-19.6,5.2l-13.3-14.6c0,5.2-.3,13.4-2.7,23.1-2.9,11.9-7.4,20.1-8.5,22.3-5.5,10.7-11.2,33-11.7,84.3"/>
      <path class="cls-1" d="M54.9,18.3"/>
      <path class="cls-1" d="M52.7,19.2"/>
      <polyline class="cls-1" points="50.4 16.5 77.3 44.9 49.4 15.8 51.7 12.9"/>
      <path class="cls-1" d="M460.9,243.2"/>
    </g>
  </g>
</svg>