<?xml version="1.0" encoding="UTF-8"?>
<svg xmlns="http://www.w3.org/2000/svg" xmlns:xlink="http://www.w3.org/1999/xlink" version="1.1" viewBox="0 0 551.1 457.7">
  <defs>
    <style>
      .cls-1 {
        fill: #063;
        stroke: #e71d73;
      }

      .cls-1, .cls-2 {
        stroke-miterlimit: 10;
        stroke-width: 2px;
      }

      .cls-2 {
        fill: none;
        stroke: #e6007e;
      }

      .cls-3 {
        display: none;
      }
    </style>
  </defs>
  <!-- Generator: Adobe Illustrator 28.7.1, SVG Export Plug-In . SVG Version: 1.2.0 Build 142)  -->
  <g>
    <g id="Laag_1">
      <g id="Scz4Ax" class="cls-3">
        <image id="Scz4Ax-2" data-name="Scz4Ax" width="626" height="626" transform="translate(70.7 38.9) scale(.7 .6)" xlink:href="kast-1.png"/>
      </g>
      <rect class="cls-2" x="146.9" y="90.7" width="248.3" height="10"/>
      <path class="cls-2" d="M153.6,108.7l-3.7-6,3.7,6Z"/>
      <path class="cls-2" d="M390.6,108.7l4.6-8-4.6,8Z"/>
      <path class="cls-2" d="M153.6,108.7h237c0,2.7-.5,5.9-2.7,7.6-2.6,2-6.3,1.1-7,1-6.3-1.2-182.1.3-215.1.6-3.3,0-5.2,0-5.3,0-.4,0-3.5.1-5.6-2.3-1.7-1.9-2.2-4.5-1.3-7Z"/>
      <rect class="cls-2" x="161.2" y="367.6" width="25.6" height="4.6"/>
      <polyline class="cls-2" points="359.7 369.9 359.7 374.6 384.6 374.6 384.6 367.6 186.8 367.6"/>
      <polyline class="cls-2" points="164.5 364.9 164.5 357.3 178.8 357.3 381 357.3 381 364.9"/>
      <polygon class="cls-2" points="178.2 308.8 367 308.8 367 355.6 178.8 357.3 178.2 308.8"/>
      <rect class="cls-2" x="201.1" y="326.1" width="144.1" height="13.3"/>
      <line class="cls-2" x1="235.6" y1="333.1" x2="221.3" y2="333.1"/>
      <line class="cls-2" x1="310.9" y1="333.1" x2="325.9" y2="333.1"/>
      <polygon class="cls-2" points="178.2 298.5 269.8 298.5 271.1 132.9 179.5 132.9 178.2 298.5"/>
      <rect class="cls-2" x="290" y="132.9" width="77" height="165.7"/>
      <rect class="cls-2" x="201.1" y="151.5" width="47.1" height="130.1"/>
      <polyline class="cls-2" points="164.5 367.6 164.5 357.3 167.9 357.3 165.9 117.9 376.3 117.1 376.3 354.6"/>
      <line class="cls-2" x1="221.3" y1="179.7" x2="221.3" y2="198.3"/>
      <line class="cls-2" x1="238.2" y1="164.8" x2="238.2" y2="181"/>
      <path class="cls-2" d="M264.8,212.9c0,2-1.6,3.7-3.7,3.7s-3.7-1.6-3.7-3.7,1.6-3.7,3.7-3.7,3.7,1.6,3.7,3.7Z"/>
      <polyline class="cls-2" points="290 197 367 197 367 190.3 290 190.3 290 234.8 367 234.8 367 242.3 292.7 242.3"/>
      <line class="cls-1" x1="148.9" y1="100.7" x2="153.6" y2="108.7"/>
    </g>
  </g>
</svg>