<?xml version="1.0" encoding="UTF-8"?>
<svg xmlns="http://www.w3.org/2000/svg" xmlns:xlink="http://www.w3.org/1999/xlink" version="1.1" viewBox="0 0 214.5 217.1">
  <defs>
    <style>
      .cls-1, .cls-2, .cls-3, .cls-4, .cls-5, .cls-6 {
        fill: #fbe0ee;
      }

      .cls-1, .cls-7, .cls-3, .cls-4, .cls-5, .cls-6 {
        stroke-miterlimit: 10;
      }

      .cls-1, .cls-3, .cls-4, .cls-6 {
        stroke: #dd0079;
      }

      .cls-1, .cls-6 {
        stroke-width: .2px;
      }

      .cls-8 {
        fill: #1c1c10;
      }

      .cls-8, .cls-2, .cls-7, .cls-3, .cls-4, .cls-9, .cls-5, .cls-6, .cls-10 {
        display: none;
      }

      .cls-11 {
        fill: #29235c;
      }

      .cls-12, .cls-9 {
        fill: #1d1d1b;
      }

      .cls-13 {
        isolation: isolate;
      }

      .cls-7 {
        fill: none;
      }

      .cls-7, .cls-4, .cls-5 {
        stroke-width: 4px;
      }

      .cls-7, .cls-5 {
        stroke: #1d1d1b;
      }

      .cls-3 {
        stroke-width: 5px;
      }
    </style>
  </defs>
  <!-- Generator: Adobe Illustrator 28.7.1, SVG Export Plug-In . SVG Version: 1.2.0 Build 142)  -->
  <g>
    <g id="Laag_1">
      <g id="Laag_1-2" data-name="Laag_1">
        <ellipse class="cls-2" cx="-182.7" cy="-217.8" rx="76.5" ry="75.5"/>
        <polyline class="cls-5" points="-229.7 -188.6 -229.7 -249.4 -210.6 -215.7 -194.7 -249.4 -193 -188.6 -179.9 -249.4 -156.9 -188.6"/>
        <line class="cls-7" x1="-189.1" y1="-214.4" x2="-146.2" y2="-234.6"/>
        <polyline class="cls-5" points="-179.9 -249.4 -156.9 -260.4 -179.9 -254.9"/>
        <g class="cls-10">
          <path class="cls-12" d="M-177.9-250.2c3.2,0,3.2-5,0-5s-3.2,5,0,5h0Z"/>
        </g>
        <g class="cls-10">
          <path class="cls-12" d="M-176.5-250.8c3.2,0,3.2-5,0-5s-3.2,5,0,5h0Z"/>
        </g>
        <g class="cls-10">
          <path class="cls-12" d="M-178.4-251.7c3.2,0,3.2-5,0-5s-3.2,5,0,5h0Z"/>
        </g>
        <g class="cls-10">
          <path class="cls-12" d="M-178.2-252.2c3.2,0,3.2-5,0-5s-3.2,5,0,5h0Z"/>
        </g>
        <g class="cls-10">
          <path class="cls-12" d="M-177.4-257.2h-.2c-.3-.2-.7-.2-1,0-.3,0-.6.1-.9.3-.3.2-.5.4-.7.6-.2.2-.4.5-.4.8v.7c0,.4,0,.9.2,1.3l.4.5c.3.3.7.5,1.1.6h.2c.3.2.7.2,1,0,.3,0,.6-.1.9-.3.3-.2.5-.4.7-.6.2-.2.4-.5.4-.8v-.7c0-.4,0-.9-.2-1.3l-.4-.5c-.3-.3-.7-.5-1.1-.6h0Z"/>
        </g>
        <g class="cls-10">
          <path class="cls-12" d="M-176.2-256.6l-.6-.4c-.2-.2-.5-.3-.8-.4-.2,0-.5,0-.7,0-.5,0-.6,0-1,.2-.2,0-.2,0-.3.1l-.5.4h0c-.3.3-.5.7-.7,1.1v.7c0,.3,0,.7.1,1,0,.2.2.4.3.6.2.3.4.5.7.6,0,0,.1,0,.2,0,.3.2.6.3.9.3.3,0,.7,0,1,0,.3,0,.6-.2.9-.4.3-.2.5-.4.6-.7l.2-.6c.1-.4.1-.9,0-1.3l-.2-.6c-.2-.4-.5-.7-.9-.9,0,0-.1,0-.2,0l1.1,2.8h0c0,.2-.2.4-.2.6h0s-.4.5-.4.5h0s-.5.4-.5.4h0l-.6.2h0-.7c0,0,0,0,0,0h-.7c0,0,0,0,0,0l-.6-.2c0,0,.1,0,.2.1h.2c0,.1.4.4.4.4.3.2.6.3.9.3.3,0,.7,0,1,0,.3,0,.6-.2.9-.4.3-.2.5-.4.6-.7l.2-.6c.1-.4.1-.9,0-1.3l-.2-.6c-.2-.4-.5-.7-.9-.9h0Z"/>
        </g>
        <g class="cls-10">
          <path class="cls-12" d="M-180.7-256.5c-.1.4-.3.7-.3,1.1s0,.8-.1,1.2c0,.2-.1.4-.2.5,0,.2,0,.4-.1.7,0,.4,0,.8,0,1.2,0,.3.3.6.6.6s.6-.3.6-.6c0-.4,0-.8,0-1.2,0-.3.2-.7.2-1,0-.4,0-.7.1-1.1,0-.4.2-.8.3-1.1.1-.3-.1-.7-.4-.8-.3,0-.7.1-.8.4h0Z"/>
        </g>
        <g class="cls-10">
          <path class="cls-12" d="M-179.5-255.8c.8,0,.8-1.2,0-1.2s-.8,1.2,0,1.2h0Z"/>
        </g>
        <g class="cls-10">
          <path class="cls-12" d="M-179.5-255.8h.2c0,0,.2,0,.2,0,0,0,.1,0,.2-.1s.1-.1.1-.2c0,0,0-.2,0-.2v-.2c0-.1-.1-.2-.2-.3h-.1c-.1-.2-.2-.2-.3-.2h-.2c0,0-.2,0-.2,0,0,0-.1,0-.2.1s-.1.1-.1.2c0,0,0,.2,0,.2v.2c0,.1.1.2.2.3h.1c.1.2.2.2.3.2h0Z"/>
        </g>
        <ellipse class="cls-6" cx="-180.8" cy="-11.2" rx="76.5" ry="75.5"/>
        <polyline class="cls-3" points="-231 23.3 -232.1 -36.3 -207.3 -16.3 -182.7 -36.3 -163.1 -52.1"/>
        <path class="cls-3" d="M-182.7-36.3V23.3v-59.5Z"/>
        <polyline class="cls-4" points="-140.1 16.5 -180.8 -33 -180.8 0 -160.4 -5.8 -142.2 -22.9"/>
        <path class="cls-4" d="M-182.7-1.1"/>
        <ellipse class="cls-2" cx="50.1" cy="-248.8" rx="73.2" ry="40.1"/>
        <g class="cls-10">
          <path class="cls-12" d="M38.8-247.5c-.2-3.9-.5-8.7-.4-12.2h-.1c-1,3.3-2.1,6.8-3.6,10.8l-5,13.7h-2.8l-4.6-13.5c-1.3-4-2.5-7.7-3.3-11h0c0,3.5-.3,8.3-.5,12.5l-.8,12.1h-3.5l2-28.3h4.7l4.8,13.7c1.2,3.5,2.1,6.6,2.9,9.5h.1c.7-2.9,1.7-6,3-9.5l5-13.7h4.7l1.8,28.3h-3.6l-.7-12.4h0Z"/>
          <path class="cls-12" d="M52.9-244l-2.9,8.9h-3.8l9.6-28.3h4.4l9.7,28.3h-3.9l-3-8.9h-10ZM62.1-246.8l-2.8-8.2c-.6-1.8-1-3.5-1.5-5.2h0c-.4,1.7-.9,3.4-1.4,5.1l-2.8,8.2h8.5,0Z"/>
          <path class="cls-12" d="M74-263.4h15.2v3.1h-11.6v9.4h10.7v3h-10.7v12.8h-3.7v-28.3Z"/>
        </g>
        <image class="cls-13" width="3024" height="4032" transform="translate(8006.5 8807.4)" xlink:href="logoofficieelnieuw-1.png"/>
        <path class="cls-9" d="M-560,734.9"/>
        <path class="cls-8" d="M114.5,72.6"/>
        <circle class="cls-1" cx="107.3" cy="109" r="104.6"/>
        <path class="cls-11" d="M50.1,159.4c0-1.1.8-2,1.2-2.7,1.6-2.2,3.8-3,4.6-3.2,2.5.4,6,.8,10.2.4,4.5-.4,11.1-1,17-5.8,5.9-4.7,8.1-11.1,8.9-14.2-.7-11.7-1.4-23.4-2-35h-1.1l-1.2-1.6-.9-1.5-.7-3.2-.5,3-1-1,1.1-9.5-2.3,5.7-.9-1.1h-1.4l1.7-6.6-5.4-1.3c-2.8-2.2-3.4-2.9-3.3-3,.3-.5,5.5,3.8,8.9,2,.9-.5,1.9-1.6,1.8-2.5-.1-1-1.5-1.1-3.7-3-1.4-1.2-2.4-2.4-2.2-2.7.2-.3,1.4.6,1.8.2.6-.5-.6-2.5,0-2.9.4-.3,1.2.8,2,.5.8-.3.5-1.5,1.2-2,1.4-1,4.5,2,5.3,1.1.5-.5-.5-1.5,0-3.3,0-.4.1-.4,1-2.1,1.4-2.7,1.4-2.7,1.6-2.9,1.5-.9,3.8,1.6,5.1.6.5-.4.4-1.1,1-1.2.7-.2,1.2.6,1.8.4.6-.2.8-1.4.8-2.2,0-1.6-.9-2.9-1.2-3.3-2.7-4-2.5-10.2-1.5-10.7.4-.2,1,.5,1.3.3.5-.4-.9-2.4-.4-3,.5-.6,2.2,1.5,4.1,1.2,2.5-.3,3.7-4.1,4.5-3.8.4.2.1,1.1.6,3.2.3,1.3.5,2.1,1,2.3.5.2,1-.4,2.4-1.4,1.6-1.2,2.8-2,3.5-1.7,1.2.6-.3,5.5.3,5.7.6.2,2.3-4.1,3.1-3.9.6.2.2,2.2,1,2.6.8.3,1.6-1,2.5-.6.9.3.9,1.6,1.4,1.5.5,0,1.1-1.6.8-2.9-.2-.9-.6-.9-.8-1.7-.1-.9.4-1.5.8-2.3.5-1.4-.1-2.3-.3-4-.2-2.4.8-4.4,2.9-8.5.6-1.2,1.3-2.5,1.6-2.4.5.1,0,2.9-.1,4.3-.4,2.6-1,4.8-.9,4.8.1,0,.9-5.2,4.5-9.5.8-1,1.8-1.9,2-1.7.4.3-3.4,6-3,6.4.4.3,4.3-4.6,4.9-4.2.4.3-.7,3.5-1.2,4.1,0,0,0,0,0,0,.1.2,3.3-2.1,3.6-1.7.3.4-2.4,2.3-2,4,.2.9,1.2,1.4,2.4,2,.4.2,1.1.6,2.1.8,0,0,.6.1,3,.1,1.9,1.1,2.6,1.6,2.5,1.7,0,.1-1.2-.2-1.2-.3,0-.1,1.7-.3,2.5.6.5.5.2,1,.7,1.3.8.5,1.9-.7,2.4-.3.4.3,0,1.1.3,1.4.3.2.5,0,1.4,0,.4,0,.6,0,.8.3.3.3,0,.5.3.9.4.5,1.1.2,1.4.7.2.4-.1.9.1,1.1.2.1.3,0,.7,0s.4.4.8.8c.4.5.5.4.9.8.6.6,1.1,1.6.9,2-.2.3-.9,0-.9,0,0,0,1.3,0,1.7.6.3.6-.5,1.6,0,2,.2.3.5,0,.8.3.5.5-.5,1.6,0,2.3.2.3.5.2.6.5.2.4-.3,1.1-.7,1.4-.8.7-1.7.7-1.7.8,0,.2,3.2-.3,3.3.2,0,.4-1.6,1.4-3.5,1.7-2.9.5-5.2-.6-5.2-.4,0,.2,2.6,1.9,6.2,2.1,1.8.1,3.3-.2,3.4.2.2.6-2.8,2-2.7,2.4.1.4,2.3-.3,2.4-.1,0,.2-2.1,1.5-3.4,1.4,0,0-.4,0-.5.1-.2.2.4.7.3,1.1,0,.5-.8.7-1.3.8-1.4.2-2-.7-3.2-.4-.2,0-.8.3-1,.7-.4,1.5,5.3,5,6.3,4,.5-.5-.3-2.1,0-2.2s1.1,1.4,1.5,1.2c.3-.1,0-1,.2-1.1.3,0,1.7,4,2,4,.1,0,0-.7.3-1.5,0,0,.5-1,.8-1,.5,0,.8,2.1.9,3.4.2,1.6.1,2.7.3,2.7.2,0,.6-1.7.8-1.7.2,0,.1,1.7.4,1.7.2,0,.4-.9.6-.8.2,0-.2,1.1.3,1.7.6.7,1.8,0,2.2.5.7,1-2.8,4.8-2.4,5.2s2.6-1.8,2.7-1.7c0,.1-3.1,2.9-2.7,3.4.1.2.6-.2.9,0,.6.5-.2,3.6-2.1,4.6-.5.3-1.2.4-1.3.8-.2.6.7,1.1.5,1.7-.2.5-.9.6-.9.9,0,.4,1.2.5,1.3,1,0,.4-.5.5-.5,1.1-.1.8.7,1.3.5,1.6-.2.3-1.7-.3-1.7-.3,0,0,3.5,1.1,3.5,1.8,0,.6-3.2.1-4,1.7-.3.7-.2,1.5-.6,1.6-.5.2-1.1-.7-1.5-.5-.6.3.6,3.6.1,3.8-.3.1-1.2-1.2-1.3-1.1-.2.2,1.5,2.8.7,3.7-.4.4-1,0-1.7.5-.9.6-.8,1.9-1.3,1.9-.6,0-1-1.9-1.7-1.9-.9,0-1.6,3.7-1.7,3.7-.1,0,1.3-4,0-5.2-.4-.3-1-.5-1.4-.3-1,.6-.3,3.5-.9,3.7-.4.1-.9-1.5-1.9-1.6-1,0-1.7,1.3-1.9,1.2-.3-.2,1.1-2.5.7-2.9-.3-.3-1.5.9-1.8.6-.3-.3,1.8-2.9,1.4-3.3-.5-.5-3.9,2.6-5,1.8-.3-.2-.2-.6-.2-2.6,0-2.1-.2-2.1-.2-3.9,0-2,.2-3.5,0-3.5-.1,0-.4,2.5-.9,2.5-.5,0-.2-2.5-1.3-3.2-1.8-1.1-6.9,2.4-8.7,7.3-.5,1.5-.6,2.7-.7,3-1.2,16.9,2.3,67.5.5,50.7,0,0-1.2,5.3-1.4,6.2-.7,2.9-2.6,7-8.3,12.5l-9.5,1.7c-.4.2-1.1.4-1.7,0-1.4-.9,0-4-1.2-5.2-1.3-1.3-4.6.8-10.3,3.1-1.2.5-5.4,2.2-8.6,3.1-7.1,1.9-13.4.7-16.7,0-5.5-1.2-9-3.1-14.1-5.9-4.7-2.6-9.8-5.5-9.6-8.7h0Z"/>
      </g>
    </g>
  </g>
</svg>